<?xml version="1.0" encoding="UTF-8"?>
<svg width="21px" height="21px" viewBox="0 0 21 21" version="1.1" xmlns="http://www.w3.org/2000/svg" xmlns:xlink="http://www.w3.org/1999/xlink">
    <!-- Generator: Sketch 64 (93537) - https://sketch.com -->
    <title>Icon/Globe</title>
    <desc>Created with Sketch.</desc>
    <g id="uploading-a-panel" stroke="none" stroke-width="1" fill="none" fill-rule="evenodd" fill-opacity="0.75">
        <g id="Social-Panels_upload-Copy" transform="translate(-722.000000, -344.000000)" fill="#3F3F3F">
            <g id="Dialog---Dialog---Dialog-with-Footer-Copy-7" transform="translate(479.000000, 187.000000)">
                <g id="Group-5" transform="translate(24.000000, 83.000000)">
                    <g id="Icon/Globe" transform="translate(219.000000, 74.000000)">
                        <path d="M16.0922344,9.55664062 C16.0306016,8.37303906 15.8519922,7.25484375 15.5815625,6.22595313 C16.1513516,6.1026875 16.6859219,5.95929688 17.1764687,5.79829688 C17.94625,6.88630469 18.4556641,8.16801563 18.6166641,9.55664062 L16.0922344,9.55664062 Z M15.5815625,14.7740469 C15.8519922,13.7451563 16.0306016,12.6269609 16.0922344,11.4433594 L18.6166641,11.4433594 C18.4556641,12.8319844 17.94625,14.1136953 17.1764687,15.2017031 C16.6859219,15.0407031 16.1513516,14.8973125 15.5815625,14.7740469 L15.5815625,14.7740469 Z M14.96775,16.5840391 C15.2419531,16.6406406 15.5023203,16.6985 15.7463359,16.7613906 C15.3450938,17.0984844 14.9111484,17.3978437 14.4495313,17.6531797 C14.6369453,17.3211172 14.8080078,16.960125 14.96775,16.5840391 L14.96775,16.5840391 Z M6.03099219,16.5840391 C6.19073437,16.960125 6.36179687,17.3211172 6.54921094,17.6531797 C6.08885156,17.3978437 5.65490625,17.0984844 5.25240625,16.7613906 C5.49642187,16.6985 5.75804687,16.6406406 6.03099219,16.5840391 L6.03099219,16.5840391 Z M4.90650781,11.4433594 C4.96814063,12.6269609 5.14800781,13.7451563 5.4184375,14.7740469 C4.84864844,14.8973125 4.31282031,15.0407031 3.82227344,15.2017031 C3.05375,14.1136953 2.54307812,12.8319844 2.38333594,11.4433594 L4.90650781,11.4433594 Z M5.4184375,6.22595313 C5.14800781,7.25484375 4.96814063,8.37303906 4.90650781,9.55664062 L2.38333594,9.55664062 C2.54307812,8.16801563 3.05375,6.88630469 3.82227344,5.79829688 C4.31282031,5.95929688 4.84864844,6.1026875 5.4184375,6.22595313 L5.4184375,6.22595313 Z M6.03099219,4.41596094 C5.75804687,4.35935938 5.49642187,4.3015 5.25240625,4.23860938 C5.65490625,3.90151562 6.08885156,3.60215625 6.54921094,3.34682031 C6.36179687,3.67888281 6.19073437,4.039875 6.03099219,4.41596094 L6.03099219,4.41596094 Z M14.4495313,3.34682031 C14.9111484,3.60215625 15.3450938,3.90151562 15.7463359,4.23860938 C15.5023203,4.3015 15.2419531,4.35935938 14.96775,4.41596094 C14.8080078,4.039875 14.6369453,3.67888281 14.4495313,3.34682031 L14.4495313,3.34682031 Z M11.4433594,4.81594531 L11.4433594,2.5305 C12.0609453,2.92167969 12.6571484,3.67259375 13.1476953,4.69645312 C12.6168984,4.75557031 12.0483672,4.7945625 11.4433594,4.81594531 L11.4433594,4.81594531 Z M11.4433594,9.55664062 L11.4433594,6.71901562 C12.2697422,6.69008594 13.0659375,6.62467969 13.8218828,6.52657031 C14.0721875,7.43596875 14.24325,8.4573125 14.3073984,9.55664062 L11.4433594,9.55664062 Z M11.4433594,14.2809844 L11.4433594,11.4433594 L14.3073984,11.4433594 C14.24325,12.5426875 14.0721875,13.5640312 13.8218828,14.4734297 C13.0659375,14.3753203 12.2697422,14.3099141 11.4433594,14.2809844 L11.4433594,14.2809844 Z M11.4433594,16.1840547 C12.0483672,16.2054375 12.6168984,16.2444297 13.1476953,16.3035469 C12.6571484,17.3274062 12.0609453,18.0783203 11.4433594,18.4682422 L11.4433594,16.1840547 Z M9.55664062,16.1840547 L9.55664062,18.4682422 C8.93905469,18.0783203 8.34159375,17.3274062 7.85104687,16.3035469 C8.38184375,16.2444297 8.950375,16.2054375 9.55664062,16.1840547 L9.55664062,16.1840547 Z M9.55664062,11.4433594 L9.55664062,14.2809844 C8.729,14.3099141 7.9340625,14.3753203 7.17685937,14.4734297 C6.9278125,13.5640312 6.75675,12.5426875 6.69260156,11.4433594 L9.55664062,11.4433594 Z M9.55664062,6.71901562 L9.55664062,9.55664062 L6.69260156,9.55664062 C6.75675,8.4573125 6.9278125,7.43596875 7.17685937,6.52657031 C7.93280469,6.62467969 8.729,6.69008594 9.55664062,6.71901562 L9.55664062,6.71901562 Z M9.55664062,4.81594531 C8.950375,4.7945625 8.38184375,4.75557031 7.85104687,4.69645312 C8.34159375,3.67259375 8.93905469,2.92167969 9.55664062,2.5305 L9.55664062,4.81594531 Z M10.5,0.4375 C4.94172656,0.4375 0.4375,4.94298438 0.4375,10.5 C0.4375,16.0570156 4.94172656,20.5625 10.5,20.5625 C16.0570156,20.5625 20.5625,16.0570156 20.5625,10.5 C20.5625,4.94298438 16.0570156,0.4375 10.5,0.4375 L10.5,0.4375 Z" id="3D-Globe"></path>
                    </g>
                </g>
            </g>
        </g>
    </g>
</svg>